<svg width="36.956604" height="30.368929" viewBox="0 0 36.9566 30.3689" fill="none" xmlns="http://www.w3.org/2000/svg" xmlns:xlink="http://www.w3.org/1999/xlink">
xmlns="http://www.w3.org/2000/svg" xmlns:xlink="http://www.w3.org/1999/xlink">
	<desc>
			Created with Pixso.
	</desc>
	<defs/>
	<path id="Vector" d="M2.42 9.16L9.23 5.28L18.47 0L27.71 5.28L36.95 10.56L36.95 16.69L31.59 13.63L18.47 6.09L7.79 12.23L2.42 9.16ZM0 13.32L0 19.61L18.79 30.36L24.03 27.06L0 13.32Z" fill="#4878A6" fill-opacity="1.000000" fill-rule="evenodd"/>
	<path id="Vector" d="M34.52 21L27.71 24.89L18.47 30.17L9.23 24.89L0 19.61L0 13.47L5.36 16.54L18.47 24.03L29.16 17.9L34.52 21ZM22.98 2.52L18.59 0L13.42 2.95L16.71 4.85L35.5 15.61L36.99 16.46L36.99 10.52L35.5 9.66L22.98 2.52Z" fill="#2A5275" fill-opacity="1.000000" fill-rule="evenodd"/>
</svg>

